<svg version="1.1" id="Layer_1" xmlns="http://www.w3.org/2000/svg" xmlns:xlink="http://www.w3.org/1999/xlink" x="0px" y="0px"
	 width="100%" viewBox="0 0 496 496" enable-background="new 0 0 496 496" xml:space="preserve">
<path fill="#000000" opacity="1.000000" stroke="none" 
	d="
M264.311890,126.507324 
	C263.226379,124.493889 264.272736,123.424850 265.578308,122.274719 
	C262.898865,120.285118 259.700714,119.004547 257.885620,115.673325 
	C260.326843,112.810295 263.073273,110.814323 267.537933,112.052650 
	C269.508911,113.822586 267.372040,117.025246 269.087921,119.213768 
	C275.006409,119.536209 279.178864,127.205254 276.807281,133.357224 
	C279.945923,135.688934 280.694122,140.696625 278.303406,143.763519 
	C276.795074,145.698456 274.117371,147.562744 278.514435,149.293015 
	C279.452576,149.662186 279.417664,150.845490 279.062225,151.487610 
	C276.759430,155.647583 280.015045,158.636322 280.996552,162.157547 
	C281.838379,165.177505 281.870972,168.453003 282.005859,171.626358 
	C282.065674,173.033569 281.938019,174.281784 283.485687,174.977997 
	C285.633484,174.428314 283.788940,171.744995 285.621338,171.002548 
	C287.518524,170.842728 287.269745,173.369690 288.886353,173.660599 
	C290.138977,173.467316 290.303253,171.281525 292.130859,171.848297 
	C294.317963,173.699081 292.543274,176.653687 293.903503,178.857025 
	C296.314758,179.703308 298.474396,176.553543 301.239990,178.514175 
	C301.068512,183.220474 295.872223,183.132523 293.556641,186.214050 
	C294.511414,189.847122 297.624786,192.415314 299.278809,195.800247 
	C300.002258,197.280701 301.193542,199.005768 299.093018,200.095398 
	C297.374298,200.986938 296.437347,199.353394 295.614807,198.085022 
	C294.175262,195.865143 292.754486,193.633133 291.176788,191.173874 
	C288.525604,193.307907 289.858398,195.508926 290.235718,197.632721 
	C290.495453,199.094986 290.850037,200.933609 288.922150,201.408310 
	C287.051971,201.868790 286.469269,200.114700 285.900421,198.732864 
	C284.304474,194.856232 284.947113,189.675507 280.307343,187.573471 
	C277.065369,186.104721 275.118927,183.728149 273.207916,180.638657 
	C275.029938,178.876114 276.739166,176.917099 274.853333,173.841980 
	C271.736237,173.720535 268.450378,172.814087 264.917419,174.139191 
	C264.205048,171.934586 263.351868,170.100296 260.546204,168.783768 
	C262.261963,167.881821 263.292969,167.339828 263.924164,167.008011 
	C263.567688,164.822830 263.307892,164.913223 253.777084,169.763367 
	C251.818130,168.211075 254.617722,166.876572 253.818832,164.862747 
	C250.652893,170.909973 244.117828,166.595901 240.453262,170.170563 
	C238.662918,169.072372 240.298004,167.715317 239.437561,166.634460 
	C237.597534,165.999619 235.172989,165.604950 233.909134,167.093521 
	C229.988235,171.711609 225.562042,168.841003 221.678284,168.804001 
	C219.937134,167.348633 222.195953,166.519241 221.532516,165.361298 
	C216.859344,162.566345 210.910645,161.622269 207.207977,156.215195 
	C210.086685,155.403641 211.280090,158.083710 213.471878,158.206207 
	C215.119659,157.722443 212.668716,154.151886 216.438080,154.429565 
	C218.922760,154.612595 220.809937,154.032043 222.323929,156.719009 
	C223.323059,158.492249 225.432068,159.532852 226.033630,161.799149 
	C226.498138,163.549179 227.933838,163.946747 229.711838,163.285049 
	C230.989716,161.271408 228.127045,159.258926 229.739120,156.961014 
	C233.596268,156.166595 233.424347,161.008972 236.063065,161.879532 
	C237.894440,160.824905 237.018997,157.851883 239.419662,157.263794 
	C242.098221,158.540344 240.566650,161.097107 241.289413,163.514725 
	C244.116364,163.152313 246.986252,162.784393 249.731400,162.432480 
	C253.239182,156.898270 240.964249,158.857285 247.064331,151.900131 
	C240.542267,154.140289 236.410934,152.359497 233.235397,148.769547 
	C232.041153,147.419434 234.582245,146.950500 235.585403,145.587936 
	C231.617783,145.795044 229.401596,142.809891 226.326416,141.724213 
	C227.352264,135.439377 225.264877,133.111023 218.666397,132.769165 
	C216.457199,132.654709 213.053650,130.689484 209.085114,127.228767 
	C209.088303,125.530563 210.428375,125.153404 211.659286,124.664825 
	C212.697952,124.252556 213.733658,123.832802 215.497086,123.124672 
	C210.463303,118.973854 202.373016,121.849251 199.423950,114.855110 
	C201.683380,113.422874 203.407669,115.085365 206.095490,115.373497 
	C202.650208,112.578606 204.995621,109.058998 203.421112,105.841263 
	C206.597839,106.239769 207.043015,109.244652 209.198837,110.763031 
	C209.116150,107.462440 206.913712,104.819237 207.847565,101.430283 
	C211.847168,106.395844 216.126480,111.183723 215.394791,118.852760 
	C218.050934,117.229530 216.632629,113.494064 219.577011,112.835228 
	C223.425827,117.260689 225.338455,122.270996 224.127502,128.751007 
	C226.288849,126.152702 227.913300,124.599174 229.973709,127.502693 
	C231.897278,126.112885 230.897003,123.399902 233.076218,122.250931 
	C235.627304,123.865067 233.684113,126.462326 234.325241,128.489380 
	C235.594406,132.502121 239.283295,135.852081 237.625244,140.755783 
	C237.317139,141.667038 238.875702,143.382812 239.868622,142.832138 
	C245.700424,139.597763 245.920074,146.248840 249.856384,147.709045 
	C250.464325,147.658798 251.941360,147.536743 253.564270,147.402634 
	C254.823273,149.191345 256.457916,150.840302 256.612793,153.342163 
	C260.590576,149.231628 261.479095,154.243469 262.577026,155.750198 
	C264.054169,157.777344 268.820587,156.658264 267.703186,159.741547 
	C267.748688,159.023422 269.552307,159.981628 270.918457,159.214340 
	C267.256287,156.059570 269.695099,148.874954 262.949677,148.721283 
	C262.412659,146.234146 265.377686,147.105881 264.886627,144.971802 
	C262.906219,143.224976 260.563202,141.511810 260.171570,138.126480 
	C259.951324,136.222458 257.889038,135.524399 255.885666,135.357147 
	C253.613449,135.167435 251.207321,135.043198 250.134979,132.565414 
	C250.561432,130.446854 252.749527,131.176270 254.640228,128.837708 
	C245.892319,126.505402 240.208511,119.543488 231.566238,117.414040 
	C232.919571,114.062164 236.383575,115.135864 238.340271,112.520721 
	C233.753708,110.514755 228.383347,114.532303 224.092911,110.531013 
	C226.550674,107.394241 231.083984,108.278320 232.585281,104.429428 
	C234.521484,103.553802 232.738358,101.107925 234.711319,99.412399 
	C238.291763,101.927605 237.462326,106.601402 239.502304,110.194206 
	C241.191437,108.810783 239.953522,106.530624 241.847382,105.590240 
	C246.286484,108.397781 244.403076,114.292542 247.484192,117.670021 
	C249.787918,117.771332 249.006622,115.262520 250.565704,114.551369 
	C252.882324,115.517311 254.501755,117.052017 254.317276,120.010956 
	C254.105209,123.412720 254.215469,126.733215 257.683044,128.795959 
	C259.350586,128.709915 258.032532,126.030426 260.592041,126.171310 
	C262.029053,130.696732 260.336975,136.872269 266.135956,140.030579 
	C266.758301,139.478683 267.569458,138.759323 268.921600,137.560196 
	C268.827332,143.272583 270.519470,147.986069 272.342865,152.729263 
	C273.395477,147.195709 273.200165,141.657257 272.276764,136.290405 
	C271.537109,131.991638 266.288483,130.670029 264.311890,126.507324 
z"/>
<path fill="#000000" opacity="1.000000" stroke="none" 
	d="
M199.528656,275.499023 
	C201.168198,277.632111 202.610428,279.459442 204.038696,281.297607 
	C205.541702,283.231964 205.946854,285.324036 204.081161,287.137878 
	C202.038940,289.123352 199.830475,288.627167 197.881622,286.803070 
	C192.934021,282.172119 189.735291,276.326904 186.573807,270.452637 
	C185.804947,269.024017 185.613327,267.229736 184.002228,266.194916 
	C181.809250,266.605225 181.498749,268.648346 180.693649,270.157959 
	C178.580139,274.121063 176.763351,278.249908 174.518799,282.133789 
	C171.456497,287.432587 167.595947,289.242371 162.059601,288.276611 
	C156.818787,287.362427 154.772537,283.453522 153.692337,278.849792 
	C151.646011,270.128601 152.716690,261.271759 153.002960,252.496811 
	C153.192383,246.690277 153.684219,240.883881 153.723541,235.058350 
	C153.743759,232.066238 154.368271,228.965759 158.072205,228.957672 
	C161.819107,228.949493 162.384216,231.994308 162.298508,235.044250 
	C161.980804,246.352188 161.620667,257.658936 161.302856,268.966858 
	C161.251450,270.795990 161.290039,272.630737 161.366653,274.459534 
	C161.447861,276.398010 162.103973,278.287537 164.003220,278.904938 
	C166.268768,279.641449 167.303680,277.600189 168.074890,276.029755 
	C172.402588,267.217133 176.616211,258.348328 180.840881,249.485382 
	C185.080185,240.591736 189.845657,232.034256 196.476807,224.648666 
	C198.468094,222.430832 200.768463,220.293625 203.704224,222.623032 
	C206.748505,225.038574 205.031967,227.620972 203.070206,229.931992 
	C198.406952,235.425491 195.009628,241.722260 191.430008,247.928818 
	C189.399200,251.449936 189.238510,254.663086 190.752701,258.321655 
	C193.176270,264.177490 195.691544,269.965942 199.528656,275.499023 
z"/>
<path fill="#000000" opacity="1.000000" stroke="none" 
	d="
M329.069397,247.588593 
	C340.986359,249.593735 345.354980,258.512238 339.883759,268.896606 
	C337.787994,272.874420 334.678009,275.993164 330.047546,278.933716 
	C335.187592,280.162872 338.729095,278.980591 342.216064,277.542633 
	C344.948151,276.415894 347.631439,276.070526 348.925751,279.319122 
	C350.072083,282.196228 348.150635,284.017914 345.742218,285.231598 
	C339.437500,288.408752 332.698792,289.316498 325.865051,287.976807 
	C317.302429,286.298157 311.414520,278.372986 310.834351,268.556854 
	C310.322540,259.897186 315.862976,251.419388 323.857819,248.748032 
	C325.422760,248.225128 327.078888,247.975159 329.069397,247.588593 
M333.423126,259.871399 
	C332.534576,257.327362 330.710632,256.198822 328.072266,256.495148 
	C322.910919,257.074799 317.971039,264.632751 319.480621,269.655548 
	C320.286560,272.337067 322.063263,272.900665 324.457672,271.608154 
	C328.974152,269.170135 332.602570,265.984314 333.423126,259.871399 
z"/>
<path fill="#000000" opacity="1.000000" stroke="none" 
	d="
M244.827744,275.819519 
	C243.948608,271.529633 243.264679,267.606873 242.380768,263.729675 
	C241.610840,260.352539 240.173935,257.172211 236.336792,256.579071 
	C231.813782,255.879898 227.362106,256.526489 223.539825,259.325897 
	C222.071747,260.401123 222.744858,261.999817 223.058182,263.478790 
	C223.615158,266.107910 222.721390,268.221832 220.089645,269.004852 
	C217.324066,269.827728 215.771881,268.080658 214.711212,265.751434 
	C212.359924,260.587860 213.721405,255.199051 218.491287,252.145813 
	C223.825623,248.731262 229.823914,247.259308 236.095108,247.793915 
	C243.414429,248.417847 248.399338,253.121735 250.249420,260.570374 
	C251.446442,265.389709 251.804199,270.411682 253.816711,275.035980 
	C255.306244,278.458588 257.405121,280.562836 261.544586,279.373169 
	C264.228546,278.601776 266.691895,278.990112 267.295074,282.281982 
	C267.940338,285.803772 265.830200,287.545624 262.710297,288.226196 
	C254.259827,290.069641 248.997849,286.479919 244.827744,275.819519 
z"/>
<path fill="#000000" opacity="1.000000" stroke="none" 
	d="
M276.793304,261.242371 
	C277.438110,257.877991 278.017853,254.950958 278.637085,252.032318 
	C279.180450,249.471161 280.586487,247.516556 283.388885,248.041138 
	C286.296417,248.585373 287.246552,250.751160 286.759521,253.706726 
	C286.005249,258.283783 285.406769,262.887939 284.812439,267.489655 
	C283.629913,276.645416 287.258209,281.262634 295.823578,279.579620 
	C298.609894,279.032135 301.472565,278.671173 302.129181,282.309143 
	C302.835938,286.225067 299.923523,287.535828 296.797638,288.163269 
	C283.701538,290.791962 275.071716,282.557892 276.243713,268.639008 
	C276.438751,266.322784 276.579529,264.002045 276.793304,261.242371 
z"/>
<path fill="#000000" opacity="1.000000" stroke="none" 
	d="
M167.647766,345.178528 
	C167.651321,342.460449 167.651321,340.179504 167.651321,337.512787 
	C173.012222,338.241821 173.410065,343.702850 177.096695,345.610077 
	C179.028183,343.414825 176.235764,339.593781 180.207748,337.340088 
	C181.296402,342.580780 180.639404,347.236328 180.483307,352.312195 
	C175.767944,351.277740 175.140656,346.627350 171.784088,345.121643 
	C169.036026,346.585327 171.561188,350.058411 169.040039,351.773193 
	C166.709229,350.156067 168.005768,347.662659 167.647766,345.178528 
z"/>
<path fill="#000000" opacity="1.000000" stroke="none" 
	d="
M290.499115,344.033630 
	C291.268707,344.814880 291.842468,345.361084 292.520508,346.006561 
	C294.443634,343.467529 292.556885,340.230072 295.204071,337.193298 
	C296.792328,342.550934 296.473602,347.145630 295.552948,352.180908 
	C290.656769,350.842957 289.649231,346.057800 286.278687,343.731903 
	C284.406525,346.207672 286.456146,349.488922 283.665619,352.330292 
	C281.934998,347.143066 282.959747,342.604736 282.953522,337.799622 
	C287.485229,338.078552 287.945587,342.046356 290.499115,344.033630 
z"/>
<path fill="#000000" opacity="1.000000" stroke="none" 
	d="
M196.914825,349.961060 
	C192.690323,345.901398 190.828751,350.522736 187.599884,351.811493 
	C188.607773,346.655243 190.192719,341.856689 193.519272,336.852844 
	C197.616104,341.393280 198.437546,346.606659 200.572159,351.235992 
	C198.450623,352.660706 197.872330,351.238647 196.914825,349.961060 
z"/>
<path fill="#000000" opacity="1.000000" stroke="none" 
	d="
M255.285980,351.860840 
	C254.748962,346.926239 260.002014,345.301331 260.870636,341.124390 
	C259.678131,338.941162 256.642273,340.710388 255.010391,338.279602 
	C258.869171,336.344879 262.473419,336.721313 266.388062,337.987640 
	C265.592041,342.611237 261.296997,344.763947 259.884186,348.705841 
	C261.320770,350.949036 264.533264,348.857880 266.249298,351.532166 
	C262.569733,352.937378 259.065063,352.356110 255.285980,351.860840 
z"/>
<path fill="#000000" opacity="1.000000" stroke="none" 
	d="
M326.189423,349.157227 
	C325.012970,350.380585 324.720093,352.233063 322.059845,351.677979 
	C323.568329,346.545959 325.182556,341.731934 328.910126,336.227936 
	C331.877228,341.828003 334.068604,346.491028 335.558533,352.278412 
	C331.834412,351.377136 330.465332,346.321533 326.189423,349.157227 
z"/>
<path fill="#000000" opacity="1.000000" stroke="none" 
	d="
M247.646851,340.596191 
	C249.805557,346.765137 248.153915,351.347473 243.633224,352.213257 
	C240.047958,352.899872 236.871033,352.114319 235.341278,348.390991 
	C233.786850,344.607574 234.308350,340.893768 237.811768,338.612183 
	C241.189316,336.412567 244.793839,336.467682 247.646851,340.596191 
M240.204346,349.375061 
	C244.716797,349.562653 247.211243,347.084259 246.021286,343.534424 
	C245.350220,341.532593 244.015671,339.976929 241.852554,339.806274 
	C240.073685,339.665955 238.782074,340.918732 237.998413,342.454132 
	C236.680954,345.035492 237.337463,347.224030 240.204346,349.375061 
z"/>
<path fill="#000000" opacity="1.000000" stroke="none" 
	d="
M306.143158,349.747345 
	C305.284607,352.378754 303.894653,352.876953 303.710236,350.145050 
	C303.438843,346.124847 303.053009,341.966339 304.301819,337.764740 
	C307.573761,338.654449 304.794006,344.022461 309.625732,343.781738 
	C313.998718,343.563812 312.064423,339.152252 314.461670,337.894897 
	C316.657959,341.486542 316.753784,347.566284 314.647491,351.932861 
	C312.045685,350.697632 313.648224,345.044434 308.716064,346.256012 
	C306.855469,346.713104 306.289948,347.732605 306.143158,349.747345 
z"/>
<path fill="#000000" opacity="1.000000" stroke="none" 
	d="
M224.161957,340.038879 
	C219.726562,339.963013 217.945007,342.823242 218.800171,346.084473 
	C220.227509,351.527710 224.390533,349.601746 228.245621,347.868896 
	C228.435532,351.828339 226.031464,352.173615 223.535721,352.337006 
	C219.085999,352.628296 216.676437,350.077911 215.878738,346.116669 
	C215.152649,342.511169 216.645508,339.418091 220.078461,337.983398 
	C223.292847,336.640045 226.506851,336.713257 228.422348,340.510193 
	C226.655945,342.543793 225.684113,340.414368 224.161957,340.038879 
z"/>
<path fill="#000000" opacity="1.000000" stroke="none" 
	d="
M288.837158,225.270737 
	C289.795807,225.603668 290.547913,225.774994 290.924744,226.246338 
	C293.062164,228.919678 294.295441,231.907059 291.329163,234.616653 
	C289.472015,236.313095 287.326630,235.812317 285.855133,233.537582 
	C283.670898,230.161041 284.559662,227.292587 288.837158,225.270737 
z"/>
<path fill="#000000" opacity="1.000000" stroke="none" 
	d="
M275.347961,345.043945 
	C275.101501,347.525330 275.979065,349.736786 273.664398,352.516235 
	C272.033813,347.156219 272.530670,342.663788 273.349640,337.119904 
	C276.242004,339.849579 274.940948,342.417664 275.347961,345.043945 
z"/>
</svg>