<?xml version="1.0" standalone="no"?>
<!DOCTYPE svg PUBLIC "-//W3C//DTD SVG 20010904//EN"
 "http://www.w3.org/TR/2001/REC-SVG-20010904/DTD/svg10.dtd">
<svg version="1.0" xmlns="http://www.w3.org/2000/svg"
 width="200.000000pt" height="200.000000pt" viewBox="0 0 200.000000 200.000000"
 preserveAspectRatio="xMidYMid meet">

<g transform="translate(0.000000,200.000000) scale(0.100000,-0.100000)"
fill="#000000" stroke="none">
<path d="M876 1385 c-97 -146 -174 -265 -172 -265 2 0 28 16 57 36 30 20 79
49 110 64 47 24 63 41 109 110 29 44 56 83 61 85 4 3 21 -17 37 -44 l30 -48
61 20 c58 19 61 21 48 41 -7 12 -44 74 -81 139 -38 64 -71 119 -75 122 -4 2
-87 -115 -185 -260z"/>
<path d="M1573 1456 c-67 -6 -124 -14 -128 -17 -10 -10 90 -22 127 -15 l33 6
-30 -11 c-29 -11 -119 -89 -111 -96 2 -3 71 30 152 71 167 84 168 81 -43 62z"/>
<path d="M1208 1264 c-27 -13 -48 -27 -48 -30 0 -4 19 -40 42 -80 l42 -74 74
0 74 0 -20 33 c-11 17 -38 65 -61 105 -23 39 -45 72 -49 72 -4 -1 -28 -12 -54
-26z"/>
<path d="M472 1129 c-89 -52 -135 -111 -119 -153 39 -101 497 -106 867 -11 97
25 86 25 -56 0 -230 -40 -542 -45 -651 -11 -52 16 -93 54 -93 84 0 9 25 40 55
69 30 29 54 53 52 53 -1 0 -26 -14 -55 -31z"/>
<path d="M1328 993 c7 -3 16 -2 19 1 4 3 -2 6 -13 5 -11 0 -14 -3 -6 -6z"/>
<path d="M170 692 c-18 -31 -40 -67 -48 -79 -13 -21 -13 -23 5 -23 12 0 29 18
48 49 16 28 32 48 37 45 5 -3 17 -23 29 -45 18 -37 43 -58 55 -47 4 5 -67 133
-83 149 -5 5 -24 -17 -43 -49z"/>
<path d="M360 735 c0 -12 15 -15 75 -15 60 0 75 3 75 15 0 12 -15 15 -75 15
-60 0 -75 -3 -75 -15z"/>
<path d="M570 735 c0 -11 16 -15 68 -17 59 -3 67 -5 67 -23 0 -18 -8 -20 -67
-23 l-68 -3 0 -39 c0 -29 4 -40 15 -40 9 0 15 9 15 25 0 21 5 25 31 25 21 0
37 -8 51 -25 11 -14 29 -25 40 -25 l21 0 -21 23 c-22 23 -22 23 -2 40 26 22
27 73 1 87 -11 5 -49 10 -85 10 -51 0 -66 -3 -66 -15z"/>
<path d="M812 730 c-29 -27 -30 -92 -2 -120 16 -16 33 -20 85 -20 79 0 105 19
105 78 0 58 -31 82 -106 82 -47 0 -65 -5 -82 -20z m146 -22 c20 -20 14 -65
-10 -82 -29 -21 -87 -20 -110 1 -20 18 -24 63 -6 81 16 16 110 16 126 0z"/>
<path d="M1040 740 c0 -5 16 -10 35 -10 l35 0 0 -70 c0 -55 3 -70 15 -70 11 0
15 16 17 68 l3 67 38 3 c73 6 35 22 -53 22 -53 0 -90 -4 -90 -10z"/>
<path d="M1270 740 c0 -6 32 -10 75 -10 43 0 75 4 75 10 0 6 -32 10 -75 10
-43 0 -75 -4 -75 -10z"/>
<path d="M1495 725 c-31 -30 -32 -73 -4 -109 18 -23 27 -26 84 -26 35 0 67 5
70 10 4 6 -16 10 -54 10 -68 0 -91 15 -91 60 0 39 32 60 92 60 27 0 48 5 48
10 0 6 -27 10 -60 10 -51 0 -65 -4 -85 -25z"/>
<path d="M1700 670 c0 -63 3 -80 14 -80 9 0 16 12 18 33 3 32 4 32 61 35 l57
3 0 -36 c0 -24 4 -35 15 -35 12 0 15 16 15 80 0 64 -3 80 -15 80 -10 0 -15
-11 -15 -35 l0 -35 -60 0 -60 0 0 35 c0 24 -5 35 -15 35 -12 0 -15 -16 -15
-80z"/>
<path d="M360 670 c0 -6 30 -10 70 -10 40 0 70 4 70 10 0 6 -30 10 -70 10 -40
0 -70 -4 -70 -10z"/>
<path d="M1270 670 c0 -6 30 -10 70 -10 40 0 70 4 70 10 0 6 -30 10 -70 10
-40 0 -70 -4 -70 -10z"/>
<path d="M360 600 c0 -6 32 -10 75 -10 43 0 75 4 75 10 0 6 -32 10 -75 10 -43
0 -75 -4 -75 -10z"/>
<path d="M1270 600 c0 -6 32 -10 75 -10 43 0 75 4 75 10 0 6 -32 10 -75 10
-43 0 -75 -4 -75 -10z"/>
</g>
</svg>
