<?xml version="1.0" standalone="no"?>
<!DOCTYPE svg PUBLIC "-//W3C//DTD SVG 20010904//EN"
 "http://www.w3.org/TR/2001/REC-SVG-20010904/DTD/svg10.dtd">
<svg version="1.0" xmlns="http://www.w3.org/2000/svg"
 width="200.000000pt" height="200.000000pt" viewBox="0 0 200.000000 200.000000"
 preserveAspectRatio="xMidYMid meet">

<g transform="translate(0.000000,200.000000) scale(0.100000,-0.100000)"
fill="#000000" stroke="none">
<path d="M913 1596 c-104 -34 -185 -106 -232 -205 -23 -49 -26 -69 -26 -156 0
-87 3 -107 26 -156 46 -97 126 -171 223 -205 97 -35 265 -9 334 51 27 24 27
24 -38 -3 -55 -22 -80 -26 -160 -26 -83 0 -102 3 -151 27 -147 71 -230 254
-186 408 43 146 165 240 314 240 79 0 128 -13 187 -52 37 -25 50 -29 59 -20
16 16 -18 45 -93 79 -67 31 -191 40 -257 18z"/>
<path d="M1118 1428 l-28 -10 0 -133 0 -132 33 6 32 7 3 137 c1 75 -1 137 -5
136 -4 0 -20 -5 -35 -11z"/>
<path d="M1348 1235 c-40 -53 -199 -105 -328 -105 -87 0 -185 17 -239 41 -24
10 -46 17 -49 15 -8 -8 38 -74 69 -101 35 -29 76 -32 205 -13 71 10 94 9 161
-5 43 -9 93 -17 111 -17 65 0 119 88 106 172 -8 44 -13 46 -36 13z"/>
<path d="M409 742 c-80 -71 -4 -189 96 -148 19 8 35 20 35 26 0 7 -9 5 -22 -4
-33 -23 -81 -20 -106 7 -28 30 -29 80 -2 107 25 25 86 27 112 3 10 -9 18 -11
18 -6 0 17 -26 34 -63 40 -28 4 -40 0 -68 -25z"/>
<path d="M646 684 c-20 -48 -34 -89 -32 -91 2 -3 9 5 16 16 9 17 20 21 60 21
40 0 50 -4 55 -20 3 -11 10 -20 15 -20 10 0 -48 149 -65 168 -10 11 -20 -4
-49 -74z m66 11 l17 -45 -39 0 c-22 0 -40 2 -40 5 0 13 33 85 39 85 4 0 14
-20 23 -45z"/>
<path d="M842 678 l2 -93 5 80 6 80 60 -77 c33 -43 63 -78 67 -78 4 0 7 42 6
93 l-2 92 -3 -83 -4 -83 -65 81 c-36 44 -67 80 -69 80 -3 0 -4 -42 -3 -92z"/>
<path d="M1134 760 c-55 -23 -71 -99 -30 -147 53 -61 156 -21 156 62 0 63 -69
110 -126 85z m96 -38 c26 -32 25 -63 -1 -96 -29 -37 -89 -37 -118 0 -25 32
-27 62 -5 92 32 46 90 48 124 4z"/>
<path d="M1379 724 c-42 -99 -51 -125 -45 -131 4 -4 9 3 13 15 5 19 12 22 58
22 46 0 53 -3 58 -22 4 -12 9 -20 12 -16 6 6 -51 157 -65 172 -6 6 -18 -11
-31 -40z m60 -61 c1 -8 -12 -13 -34 -13 -40 0 -41 4 -18 62 l17 42 17 -40 c10
-21 18 -45 18 -51z"/>
<path d="M1566 757 c-30 -22 -17 -59 29 -83 30 -15 40 -26 40 -45 0 -19 -6
-25 -28 -27 -16 -2 -35 2 -43 9 -8 6 -17 9 -20 6 -3 -3 6 -13 20 -22 52 -35
114 11 82 61 -9 13 -28 27 -41 30 -35 9 -50 38 -30 58 12 11 22 13 40 6 14 -5
25 -6 25 -1 0 21 -49 27 -74 8z"/>
</g>
</svg>
