<?xml version="1.0" standalone="no"?>
<!DOCTYPE svg PUBLIC "-//W3C//DTD SVG 20010904//EN"
 "http://www.w3.org/TR/2001/REC-SVG-20010904/DTD/svg10.dtd">
<svg version="1.0" xmlns="http://www.w3.org/2000/svg"
 width="200.000000pt" height="200.000000pt" viewBox="0 0 200.000000 200.000000"
 preserveAspectRatio="xMidYMid meet">

<g transform="translate(0.000000,200.000000) scale(0.100000,-0.100000)"
fill="#000000" stroke="none">
<path d="M968 1483 l-78 -4 0 -149 c0 -83 2 -150 5 -150 19 0 55 27 55 41 0
10 5 21 10 24 6 4 10 53 10 116 l0 109 35 0 34 0 4 -82 3 -83 2 93 c1 50 1 91
0 90 -2 -1 -38 -4 -80 -5z"/>
<path d="M432 1437 c-12 -13 -22 -32 -22 -44 0 -22 26 -79 41 -88 5 -4 9 -18
9 -32 0 -20 4 -24 18 -18 9 4 25 10 35 12 14 5 17 18 17 89 l0 84 60 0 c33 0
60 4 60 10 0 15 -94 12 -123 -3 -20 -11 -23 -17 -15 -25 8 -8 9 -12 1 -12 -6
0 -18 11 -27 25 -20 31 -27 31 -54 2z m68 -97 c0 -27 -4 -50 -9 -50 -5 0 -9
23 -9 50 -1 28 3 50 9 50 5 0 9 -22 9 -50z"/>
<path d="M998 1433 c7 -3 16 -2 19 1 4 3 -2 6 -13 5 -11 0 -14 -3 -6 -6z"/>
<path d="M1247 1382 c-30 -31 -37 -45 -37 -77 0 -36 1 -38 15 -19 8 10 15 27
15 37 0 18 20 25 20 6 0 -7 7 -8 18 -3 9 4 38 8 65 10 40 1 47 -1 47 -17 0
-10 5 -21 10 -24 6 -4 10 8 10 28 0 26 -8 41 -35 65 -48 44 -81 42 -128 -6z"/>
<path d="M998 1393 c7 -3 16 -2 19 1 4 3 -2 6 -13 5 -11 0 -14 -3 -6 -6z"/>
<path d="M998 1353 c7 -3 16 -2 19 1 4 3 -2 6 -13 5 -11 0 -14 -3 -6 -6z"/>
<path d="M1100 1250 c0 -5 5 -10 11 -10 5 0 7 5 4 10 -3 6 -8 10 -11 10 -2 0
-4 -4 -4 -10z"/>
<path d="M1015 1222 c-12 -17 -13 -23 -4 -18 8 3 22 9 31 12 9 3 19 12 22 19
9 23 -29 13 -49 -13z"/>
<path d="M496 1218 c-21 -30 -20 -45 4 -75 11 -14 20 -32 20 -39 0 -8 3 -14 8
-14 12 -1 45 -52 51 -81 5 -22 9 -26 21 -19 12 8 10 20 -17 86 -18 43 -31 79
-29 81 2 2 17 -27 35 -64 43 -93 46 -98 66 -102 16 -3 17 2 12 43 -7 52 -52
156 -66 156 -6 0 -21 11 -35 25 -31 31 -50 32 -70 3z"/>
<path d="M660 1192 c19 -17 41 -31 48 -32 15 0 16 20 1 40 -8 12 -9 9 -4 -9
l7 -24 -28 20 c-51 35 -60 37 -24 5z"/>
<path d="M985 1193 c2 -18 -1 -33 -6 -33 -5 0 -9 -4 -9 -10 0 -5 11 -10 24
-10 14 0 28 5 31 10 3 6 0 10 -8 10 -8 0 -19 15 -25 33 l-11 32 4 -32z"/>
<path d="M730 1193 c0 -13 5 -23 10 -23 13 0 13 11 0 30 -8 12 -10 11 -10 -7z"/>
<path d="M1310 1205 c-1 -5 -1 -20 0 -33 1 -13 -3 -28 -8 -35 -5 -7 -6 -21 -2
-31 9 -27 23 -3 22 38 0 17 5 37 11 45 9 11 9 13 0 8 -6 -4 -14 -1 -16 5 -3 7
-6 9 -7 3z"/>
<path d="M355 1161 c-8 -25 3 -81 15 -81 5 0 14 -10 20 -22 10 -21 10 -21 -3
-5 -21 26 -93 23 -107 -4 -14 -24 10 -68 41 -76 10 -3 19 -12 19 -20 0 -8 11
-24 24 -36 13 -12 26 -32 30 -45 4 -12 25 -31 46 -42 l39 -20 -6 53 c-6 53
-33 90 -103 140 l-25 18 25 -12 c14 -6 44 -27 66 -45 38 -30 43 -32 55 -18 7
9 21 19 31 23 14 5 7 18 -44 81 -62 74 -56 78 12 9 19 -20 45 -39 58 -42 24
-6 23 -2 -14 48 -12 17 -25 40 -28 52 -9 29 -47 52 -100 59 -39 6 -45 4 -51
-15z m75 -134 c0 -6 12 -22 28 -35 21 -18 22 -21 5 -12 -22 10 -53 47 -53 63
0 4 5 5 10 2 6 -3 10 -11 10 -18z"/>
<path d="M1565 1150 c-3 -5 -15 -10 -25 -10 -13 0 -22 -9 -26 -25 -3 -14 -12
-25 -19 -25 -25 0 -47 -37 -40 -69 8 -39 22 -39 54 -1 14 17 41 35 60 40 30 8
36 6 63 -21 28 -27 30 -34 24 -77 -5 -36 -4 -44 6 -34 7 7 20 12 30 12 29 0
39 41 22 91 -8 24 -21 49 -28 54 -7 6 -15 17 -18 26 -7 17 -61 49 -84 49 -7 0
-16 -4 -19 -10z"/>
<path d="M1416 1113 c-13 -21 -23 -39 -21 -41 6 -6 34 11 30 18 -3 5 0 12 7
17 12 7 21 43 12 43 -2 0 -14 -17 -28 -37z"/>
<path d="M690 1121 c-7 -14 -6 -31 5 -61 20 -56 26 -65 35 -50 4 6 -1 28 -12
48 -10 20 -17 47 -15 60 5 27 1 28 -13 3z"/>
<path d="M1221 1118 c-1 -15 4 -30 9 -33 12 -7 12 12 0 40 -8 18 -9 17 -9 -7z"/>
<path d="M1349 1113 c-1 -5 0 -18 1 -31 1 -15 -6 -25 -21 -30 -26 -10 -18 -17
31 -27 29 -6 33 -5 23 7 -7 8 -13 31 -15 51 -1 20 -6 37 -10 37 -4 0 -8 -3 -9
-7z"/>
<path d="M1577 1041 c-10 -4 -18 -10 -17 -15 1 -4 -9 -20 -23 -35 -13 -15 -29
-36 -34 -46 -15 -26 -135 -145 -147 -145 -5 0 5 17 24 38 31 33 29 32 -10 -5
-24 -23 -41 -46 -37 -50 11 -10 159 22 205 44 25 12 48 36 70 73 32 55 44 108
20 94 -10 -6 -10 -4 0 8 10 13 9 18 -10 30 -13 8 -31 12 -41 9z m9 -53 c4 -7
3 -8 -4 -4 -6 3 -16 -3 -22 -14 -6 -11 -9 -20 -7 -20 3 0 -25 -31 -61 -70 -36
-38 -70 -70 -76 -70 -5 0 10 21 35 48 25 26 62 68 83 95 41 52 42 52 52 35z
m20 -45 c-8 -15 -31 -46 -51 -68 l-36 -40 33 49 c18 26 39 59 46 73 8 13 16
22 19 20 2 -3 -2 -18 -11 -34z"/>
<path d="M864 1005 c4 -16 8 -30 9 -30 1 0 14 -11 30 -24 40 -36 34 -4 -10 44
l-36 40 7 -30z"/>
<path d="M740 1001 c0 -5 7 -14 15 -21 21 -17 19 -30 -5 -30 -11 0 -20 -4 -20
-10 0 -5 -6 -7 -13 -4 -26 10 -52 -22 -51 -65 2 -68 20 -98 62 -105 66 -11
122 -7 122 8 0 7 7 19 15 26 8 7 17 27 21 46 3 19 10 36 14 39 13 8 -1 45 -21
55 -23 13 -50 2 -48 -19 3 -31 -1 -42 -12 -35 -8 4 -7 9 2 15 9 6 1 9 -26 10
-34 2 -35 3 -10 6 17 2 36 13 43 24 12 19 11 20 -10 17 -17 -2 -26 4 -35 25
-11 25 -43 39 -43 18z m150 -83 c0 -6 -6 -5 -15 2 -8 7 -15 14 -15 16 0 2 7 1
15 -2 8 -4 15 -11 15 -16z m-180 -2 c0 -2 -7 -7 -16 -10 -8 -3 -12 -2 -9 4 6
10 25 14 25 6z"/>
<path d="M1123 975 c-33 -41 -39 -43 -47 -11 -3 13 -13 27 -22 30 -23 9 -54
-2 -54 -19 0 -8 -12 -20 -27 -27 -17 -8 -29 -23 -31 -38 -2 -13 -12 -30 -22
-37 -10 -7 -21 -28 -24 -47 -4 -19 -13 -37 -21 -40 -8 -3 -15 -13 -15 -21 0
-14 18 -16 140 -14 160 2 186 11 176 60 -3 15 -1 31 4 34 18 11 10 41 -15 63
-28 24 -34 69 -10 78 8 4 15 10 15 15 0 19 -20 8 -47 -26z m11 -66 c-5 -8 -10
-6 -16 5 -5 9 -6 21 -2 27 5 8 10 6 16 -5 5 -9 6 -21 2 -27z"/>
<path d="M555 980 c9 -10 15 -26 12 -35 -7 -17 18 -21 28 -5 3 6 2 10 -3 10
-5 0 -14 11 -20 25 -6 14 -17 25 -23 25 -7 0 -5 -8 6 -20z"/>
<path d="M1241 973 c-1 -7 -8 -10 -16 -7 -8 4 -26 3 -40 0 -30 -8 -33 -36 -5
-54 18 -11 20 -21 17 -71 -3 -32 -7 -64 -11 -70 -9 -14 36 -15 85 -1 37 10 69
54 69 95 0 34 -47 95 -74 95 -8 0 -17 6 -19 13 -4 9 -6 9 -6 0z m78 -86 c0
-21 -1 -21 -9 -2 -12 28 -12 37 0 30 6 -3 10 -16 9 -28z"/>
<path d="M1459 923 c-13 -16 -12 -17 4 -4 16 13 21 21 13 21 -2 0 -10 -8 -17
-17z"/>
<path d="M420 751 c22 -44 43 -82 48 -85 5 -3 26 -2 48 1 l39 6 -30 13 c-37
16 -23 18 28 3 28 -7 101 -7 250 0 141 7 278 7 407 1 161 -8 204 -7 243 5 26
8 45 10 42 5 -4 -6 -13 -10 -21 -10 -8 0 -14 -4 -14 -10 0 -5 17 -10 38 -10
37 0 38 1 75 75 20 42 37 77 37 79 0 2 -21 -4 -47 -14 -255 -96 -784 -105
-1081 -18 -40 12 -75 25 -78 30 -3 4 -9 8 -15 8 -5 0 9 -36 31 -79z m210 -30
c52 -11 82 -20 67 -20 -35 -1 -177 28 -197 40 -11 7 -8 8 10 4 14 -3 68 -14
120 -24z m860 19 c-20 -11 -187 -43 -202 -38 -11 4 167 44 202 47 13 0 13 -1
0 -9z"/>
<path d="M1006 634 c-12 -11 -16 -36 -16 -94 0 -68 3 -81 19 -90 57 -30 81 0
81 100 0 68 -3 81 -19 90 -27 14 -47 13 -65 -6z m49 -90 c0 -55 -3 -69 -15
-69 -11 0 -16 15 -18 59 -3 66 2 90 21 83 8 -2 12 -26 12 -73z"/>
<path d="M768 634 c-3 -3 -4 -23 -1 -45 5 -35 3 -39 -16 -39 -18 0 -21 6 -21
40 0 33 -3 40 -19 40 -16 0 -19 -6 -16 -32 3 -18 7 -63 11 -100 4 -49 10 -68
20 -68 10 0 14 13 14 45 0 59 25 63 35 5 4 -27 12 -40 22 -40 13 0 15 10 9 61
-3 34 -6 79 -6 100 0 36 -15 51 -32 33z"/>
<path d="M844 624 c3 -9 6 -54 6 -100 l0 -84 31 0 c49 0 69 16 69 55 0 18 -4
36 -10 40 -6 4 -6 14 1 28 7 15 7 31 0 50 -9 24 -16 27 -57 27 -38 0 -45 -3
-40 -16z m66 -39 c0 -16 -6 -25 -15 -25 -9 0 -15 9 -15 25 0 16 6 25 15 25 9
0 15 -9 15 -25z m5 -85 c0 -16 -6 -26 -17 -28 -14 -3 -18 3 -18 28 0 25 4 31
18 28 11 -2 17 -12 17 -28z"/>
<path d="M1137 633 c-4 -3 -7 -48 -7 -100 0 -76 3 -93 15 -93 11 0 15 11 15
40 0 50 17 52 26 4 4 -19 13 -38 21 -41 21 -8 23 0 12 41 -7 26 -7 41 1 51 12
15 16 76 6 93 -8 13 -78 17 -89 5z m61 -50 c-4 -39 -28 -42 -28 -4 0 21 5 31
16 31 11 0 14 -8 12 -27z"/>
<path d="M1276 579 c-10 -105 -8 -149 9 -149 11 0 15 12 15 45 0 39 3 45 21
45 20 0 21 -4 16 -45 -6 -39 -4 -45 12 -45 15 0 19 11 25 77 9 109 8 123 -8
123 -10 0 -16 -13 -18 -37 -2 -27 -8 -39 -20 -41 -15 -3 -18 4 -18 42 0 32 -4
46 -14 46 -9 0 -15 -20 -20 -61z"/>
<path d="M569 609 c-14 -14 -19 -28 -15 -47 3 -15 8 -47 12 -72 8 -54 19 -70
49 -70 35 0 55 30 48 73 -5 31 -10 37 -29 37 -15 0 -24 -6 -24 -15 0 -8 5 -15
10 -15 6 0 10 -11 10 -25 0 -15 -6 -25 -14 -25 -19 0 -34 126 -17 143 9 9 13
6 17 -11 8 -30 34 -28 34 3 0 23 -24 45 -49 45 -6 0 -20 -9 -32 -21z"/>
<path d="M1432 603 c-17 -32 -26 -151 -12 -168 16 -19 64 -19 80 -1 6 9 12 51
13 98 l2 83 -37 3 c-27 2 -39 -1 -46 -15z m54 -75 c-8 -71 -11 -78 -33 -78
-12 0 -14 9 -8 53 9 73 14 87 32 87 13 0 15 -9 9 -62z"/>
<path d="M474 593 c3 -10 10 -55 17 -100 8 -58 15 -83 25 -83 17 0 18 23 2
123 -10 65 -14 77 -30 77 -14 0 -18 -5 -14 -17z"/>
<path d="M1587 598 c-17 -13 -37 -95 -37 -153 0 -35 13 -45 55 -45 30 0 32 3
51 96 16 78 16 78 -6 96 -26 21 -40 22 -63 6z m39 -79 c-9 -74 -14 -89 -33
-89 -12 0 -14 9 -8 53 9 65 21 97 36 97 8 0 10 -18 5 -61z"/>
<path d="M368 593 c-22 -6 -22 -17 -2 -121 l17 -83 41 7 c48 7 50 9 41 24 -4
6 -17 9 -30 6 -18 -5 -24 -1 -29 17 -9 33 -8 35 15 42 26 8 19 31 -8 27 -15
-2 -22 4 -25 22 -6 30 -2 36 24 36 10 0 18 7 18 15 0 15 -25 18 -62 8z"/>
<path d="M1715 577 c-6 -20 -35 -168 -35 -182 0 -16 59 -26 81 -14 19 10 53
146 43 172 -3 10 -18 20 -33 23 -14 3 -32 7 -39 10 -7 2 -15 -2 -17 -9z m51
-77 c-9 -70 -22 -101 -40 -94 -12 5 -12 13 0 62 7 31 13 63 14 70 0 6 7 12 16
12 14 0 16 -8 10 -50z"/>
<path d="M274 543 c4 -21 9 -47 12 -58 3 -11 -9 3 -27 30 -17 28 -33 51 -34
53 -1 1 -9 0 -18 -3 -13 -6 -13 -13 -1 -68 28 -120 34 -137 50 -137 12 0 15 6
10 26 -4 15 -9 40 -12 58 -5 28 -2 25 26 -21 21 -35 36 -50 46 -46 18 7 18 1
-7 111 -15 65 -26 92 -36 92 -12 0 -14 -8 -9 -37z"/>
<path d="M540 216 c0 -2 8 -10 18 -17 15 -13 16 -12 3 4 -13 16 -21 21 -21 13z"/>
<path d="M581 204 c0 -11 3 -14 6 -6 3 7 2 16 -1 19 -3 4 -6 -2 -5 -13z"/>
<path d="M801 204 c0 -11 3 -14 6 -6 3 7 2 16 -1 19 -3 4 -6 -2 -5 -13z"/>
<path d="M970 206 c0 -7 7 -13 15 -13 8 0 15 4 15 8 0 4 -7 9 -15 13 -9 3 -15
0 -15 -8z"/>
<path d="M1071 204 c0 -11 3 -14 6 -6 3 7 2 16 -1 19 -3 4 -6 -2 -5 -13z"/>
<path d="M1291 202 c0 -11 2 -12 6 -4 2 6 9 10 13 7 5 -3 11 -2 14 3 2 4 -4 9
-15 9 -12 1 -19 -4 -18 -15z"/>
<path d="M1381 204 c0 -11 3 -14 6 -6 3 7 2 16 -1 19 -3 4 -6 -2 -5 -13z"/>
<path d="M1431 204 c0 -11 3 -14 6 -6 3 7 2 16 -1 19 -3 4 -6 -2 -5 -13z"/>
<path d="M1460 216 c0 -2 7 -9 15 -16 9 -7 15 -8 15 -2 0 5 -7 12 -15 16 -8 3
-15 4 -15 2z"/>
<path d="M1585 209 c-4 -6 -5 -12 -2 -15 2 -3 7 2 10 11 7 17 1 20 -8 4z"/>
<path d="M450 202 c0 -5 7 -9 15 -9 8 0 12 4 9 9 -3 4 -9 8 -15 8 -5 0 -9 -4
-9 -8z"/>
</g>
</svg>
