<?xml version="1.0" standalone="no"?>
<!DOCTYPE svg PUBLIC "-//W3C//DTD SVG 20010904//EN"
 "http://www.w3.org/TR/2001/REC-SVG-20010904/DTD/svg10.dtd">
<svg version="1.0" xmlns="http://www.w3.org/2000/svg"
 width="200.000000pt" height="200.000000pt" viewBox="0 0 200.000000 200.000000"
 preserveAspectRatio="xMidYMid meet">

<g transform="translate(0.000000,200.000000) scale(0.100000,-0.100000)"
fill="#000000" stroke="none">
<path d="M930 1373 c0 -116 13 -115 41 4 10 43 19 81 19 86 0 4 -13 7 -30 7
l-30 0 0 -97z"/>
<path d="M1382 1458 c-14 -14 -16 -28 -3 -28 5 0 11 9 14 20 6 23 5 24 -11 8z"/>
<path d="M680 1379 c0 -24 44 -124 59 -133 4 -3 15 12 24 34 l15 40 -49 41
c-45 38 -49 39 -49 18z"/>
<path d="M691 1274 c0 -11 3 -14 6 -6 3 7 2 16 -1 19 -3 4 -6 -2 -5 -13z"/>
<path d="M982 1185 c15 -16 20 -17 30 -6 11 11 10 13 0 7 -7 -4 -21 -2 -30 5
-15 12 -15 11 0 -6z"/>
<path d="M1350 1114 c-32 -68 -35 -72 -41 -46 -4 15 -7 -15 -8 -66 l-1 -93 48
3 47 3 3 123 c1 67 -1 129 -5 136 -5 9 -19 -10 -43 -60z"/>
<path d="M895 1153 l-28 -27 62 -58 c34 -32 65 -58 69 -58 5 0 31 21 58 48 28
26 40 38 27 28 -12 -11 -24 -18 -26 -15 -2 2 -11 17 -20 32 -10 15 -22 25 -28
22 -5 -4 -26 7 -47 24 l-38 30 -29 -26z"/>
<path d="M605 1148 c-3 -13 -5 -70 -3 -128 l3 -105 48 -3 47 -3 -1 103 c-1 57
-3 95 -6 86 -3 -14 -12 -8 -43 27 -37 43 -40 44 -45 23z"/>
<path d="M1080 970 l-65 -59 63 -1 c71 0 75 4 70 73 l-3 46 -65 -59z"/>
<path d="M190 789 c0 -31 4 -48 10 -44 6 3 10 18 10 32 l0 25 20 -23 20 -24
20 25 20 25 0 -32 c0 -18 5 -33 10 -33 6 0 10 23 10 50 0 56 -17 67 -40 25 -7
-14 -17 -25 -21 -25 -5 0 -16 11 -25 25 -25 38 -34 30 -34 -26z"/>
<path d="M360 790 l0 -50 51 0 c31 0 48 4 44 10 -3 6 -22 10 -41 10 -19 0 -34
5 -34 10 0 6 16 10 35 10 19 0 35 5 35 10 0 6 -16 10 -35 10 -19 0 -35 5 -35
10 0 6 15 10 34 10 19 0 38 5 41 10 4 6 -13 10 -44 10 l-51 0 0 -50z"/>
<path d="M500 830 c0 -5 9 -10 20 -10 17 0 20 -7 20 -40 0 -22 5 -40 10 -40 6
0 10 18 10 40 0 33 3 40 20 40 11 0 20 5 20 10 0 6 -22 10 -50 10 -27 0 -50
-4 -50 -10z"/>
<path d="M652 794 c-13 -26 -20 -49 -17 -52 7 -7 9 -4 33 43 l21 40 17 -42
c18 -44 41 -61 28 -20 -12 41 -34 77 -47 77 -7 0 -23 -21 -35 -46z"/>
<path d="M790 790 l0 -50 51 0 c31 0 48 4 44 10 -3 6 -22 10 -41 10 -33 0 -34
1 -34 40 0 22 -4 40 -10 40 -5 0 -10 -22 -10 -50z"/>
<path d="M937 833 c-9 -8 -9 -56 -1 -77 7 -18 94 -23 94 -6 0 6 -18 10 -40 10
-38 0 -40 2 -40 30 0 28 2 30 40 30 22 0 40 5 40 10 0 11 -83 14 -93 3z"/>
<path d="M1102 794 c-13 -26 -20 -49 -17 -52 7 -7 9 -4 33 43 l20 39 22 -44
c13 -25 25 -40 27 -33 6 17 -35 93 -50 93 -7 0 -23 -21 -35 -46z"/>
<path d="M1240 790 c0 -27 5 -50 10 -50 6 0 10 17 10 37 l0 37 38 -37 c21 -20
41 -37 45 -37 4 0 7 23 7 50 0 28 -4 50 -10 50 -5 0 -10 -17 -10 -37 l-1 -38
-30 38 c-43 52 -59 49 -59 -13z"/>
<path d="M1404 826 c-3 -8 -4 -29 -2 -48 3 -32 5 -33 49 -36 46 -3 47 -3 51
30 6 60 1 68 -48 68 -29 0 -47 -5 -50 -14z m86 -36 c0 -28 -3 -30 -35 -30 -32
0 -35 2 -35 30 0 28 3 30 35 30 32 0 35 -2 35 -30z"/>
<path d="M1572 795 c-25 -51 -26 -55 -14 -55 5 0 17 18 27 41 l19 41 19 -39
c23 -45 25 -48 32 -41 9 8 -37 98 -50 98 -6 0 -21 -20 -33 -45z"/>
<path d="M1712 813 c3 -24 8 -28 41 -31 50 -4 48 -22 -3 -22 -22 0 -40 -5 -40
-11 0 -6 19 -9 48 -7 43 3 47 5 47 28 0 21 -5 25 -35 28 -52 5 -62 22 -13 22
23 0 45 5 48 10 4 6 -13 10 -45 10 -50 0 -51 -1 -48 -27z"/>
</g>
</svg>
