<?xml version="1.0" standalone="no"?>
<!DOCTYPE svg PUBLIC "-//W3C//DTD SVG 20010904//EN"
 "http://www.w3.org/TR/2001/REC-SVG-20010904/DTD/svg10.dtd">
<svg version="1.0" xmlns="http://www.w3.org/2000/svg"
 width="200.000000pt" height="200.000000pt" viewBox="0 0 200.000000 200.000000"
 preserveAspectRatio="xMidYMid meet">

<g transform="translate(0.000000,200.000000) scale(0.100000,-0.100000)"
fill="#000000" stroke="none">
<path d="M997 1676 c-11 -27 -8 -36 8 -36 16 0 17 5 6 34 -7 18 -8 18 -14 2z"/>
<path d="M670 1480 c19 -16 48 -44 63 -62 l29 -33 -21 42 c-22 45 -64 83 -90
83 -11 -1 -4 -11 19 -30z"/>
<path d="M810 1481 c0 -11 4 -21 9 -21 18 0 21 18 6 30 -13 10 -15 9 -15 -9z"/>
<path d="M1176 1481 c-4 -7 -5 -15 -2 -18 9 -9 19 4 14 18 -4 11 -6 11 -12 0z"/>
<path d="M861 1386 c-13 -15 -4 -76 11 -76 6 0 8 -9 5 -20 -3 -11 0 -26 7 -33
7 -7 16 -30 19 -52 4 -22 11 -41 16 -43 6 -2 7 -10 4 -19 -4 -11 -2 -14 8 -11
26 8 22 75 -11 174 -17 52 -35 94 -40 94 -4 0 -13 -6 -19 -14z"/>
<path d="M1135 1381 c-18 -30 -85 -261 -83 -286 l3 -30 38 52 c25 34 49 87 71
156 33 105 33 105 12 111 -29 8 -34 7 -41 -3z"/>
<path d="M646 1372 c-3 -6 -1 -14 5 -17 15 -10 25 3 12 16 -7 7 -13 7 -17 1z"/>
<path d="M550 1124 c0 -3 18 -45 41 -93 l41 -88 86 -6 c92 -7 173 -27 235 -59
l38 -19 -12 23 c-26 49 -145 155 -209 187 -90 44 -220 77 -220 55z"/>
<path d="M618 915 c-17 -18 8 -25 85 -25 95 0 181 -19 241 -55 53 -31 74 -31
115 -1 44 32 150 56 250 56 68 0 81 3 81 16 0 15 -11 16 -92 10 -117 -9 -168
-20 -241 -53 l-58 -26 -52 25 c-28 14 -77 31 -107 37 -77 15 -214 24 -222 16z"/>
<path d="M270 715 c0 -118 1 -125 20 -125 17 0 20 7 20 40 l0 40 44 0 c64 0
96 29 96 85 0 62 -31 85 -116 85 l-64 0 0 -125z m118 79 c24 -17 29 -53 10
-72 -7 -7 -29 -12 -50 -12 l-38 0 0 50 c0 48 1 50 28 50 15 0 38 -7 50 -16z"/>
<path d="M180 802 c0 -5 12 -19 27 -33 l27 -24 -23 33 c-23 32 -31 39 -31 24z"/>
<path d="M1800 758 l-23 -33 28 27 c16 15 26 30 23 33 -3 4 -16 -9 -28 -27z"/>
<path d="M1634 760 c-47 -19 -70 -93 -41 -131 17 -23 52 -39 82 -39 37 0 85
50 85 89 0 59 -71 105 -126 81z m70 -46 c24 -24 20 -61 -9 -80 -23 -15 -27
-15 -50 0 -42 28 -24 96 25 96 10 0 26 -7 34 -16z"/>
<path d="M480 680 c0 -64 3 -80 15 -80 11 0 15 12 15 46 0 55 14 84 40 84 11
0 20 7 20 15 0 18 -14 19 -41 5 -13 -7 -19 -7 -19 0 0 5 -7 10 -15 10 -12 0
-15 -16 -15 -80z"/>
<path d="M990 674 c0 -76 2 -85 18 -82 13 3 18 15 20 62 3 54 5 59 33 69 16 6
29 17 29 24 0 16 -32 17 -47 2 -8 -8 -13 -8 -17 0 -4 6 -14 11 -22 11 -11 0
-14 -18 -14 -86z"/>
<path d="M1121 734 c-12 -15 -21 -41 -21 -59 0 -62 86 -107 135 -72 27 20 11
39 -20 25 -30 -13 -75 3 -75 27 0 12 14 15 66 15 l66 0 -7 28 c-11 45 -34 62
-81 62 -34 0 -47 -5 -63 -26z m97 -16 c21 -21 13 -28 -33 -28 -32 0 -45 4 -45
14 0 25 57 35 78 14z"/>
<path d="M1306 744 c-29 -29 -14 -56 47 -82 50 -22 15 -47 -43 -31 -8 2 -15
-2 -15 -11 0 -21 60 -36 91 -21 21 9 25 17 22 44 -2 26 -10 35 -40 50 -21 9
-38 21 -38 26 0 15 30 22 50 11 13 -7 19 -6 23 4 11 28 -71 37 -97 10z"/>
<path d="M1451 746 c-23 -27 -5 -62 39 -80 22 -9 40 -21 40 -26 0 -17 -30 -23
-55 -12 -17 8 -26 8 -31 1 -19 -31 62 -49 95 -22 35 28 23 68 -25 83 -24 8
-34 17 -32 28 4 16 15 19 48 11 8 -2 15 3 15 11 0 22 -77 26 -94 6z"/>
<path d="M1821 709 c-13 -5 -22 -11 -20 -13 7 -7 59 6 59 15 0 11 -8 11 -39
-2z"/>
<path d="M411 464 c0 -11 3 -14 6 -6 3 7 2 16 -1 19 -3 4 -6 -2 -5 -13z"/>
<path d="M431 464 c0 -11 3 -14 6 -6 3 7 2 16 -1 19 -3 4 -6 -2 -5 -13z"/>
<path d="M461 464 c0 -11 3 -14 6 -6 3 7 2 16 -1 19 -3 4 -6 -2 -5 -13z"/>
<path d="M483 465 c0 -8 4 -12 9 -9 5 3 6 10 3 15 -9 13 -12 11 -12 -6z"/>
<path d="M570 467 c0 -8 6 -14 14 -14 8 0 12 6 9 14 -3 7 -9 13 -14 13 -5 0
-9 -6 -9 -13z"/>
<path d="M626 467 c3 -10 9 -15 12 -12 3 3 0 11 -7 18 -10 9 -11 8 -5 -6z"/>
<path d="M671 464 c0 -11 3 -14 6 -6 3 7 2 16 -1 19 -3 4 -6 -2 -5 -13z"/>
<path d="M731 464 c0 -11 3 -14 6 -6 3 7 2 16 -1 19 -3 4 -6 -2 -5 -13z"/>
<path d="M761 464 c0 -11 3 -14 6 -6 3 7 2 16 -1 19 -3 4 -6 -2 -5 -13z"/>
<path d="M810 464 c0 -8 5 -12 10 -9 6 4 8 11 5 16 -9 14 -15 11 -15 -7z"/>
<path d="M880 465 c0 -8 7 -15 15 -15 9 0 12 6 9 15 -4 8 -10 15 -15 15 -5 0
-9 -7 -9 -15z"/>
<path d="M1001 464 c0 -11 3 -14 6 -6 3 7 2 16 -1 19 -3 4 -6 -2 -5 -13z"/>
<path d="M1037 467 c-3 -7 3 -13 13 -13 10 0 16 6 13 13 -3 7 -9 13 -13 13 -4
0 -10 -6 -13 -13z"/>
<path d="M1091 464 c0 -11 3 -14 6 -6 3 7 2 16 -1 19 -3 4 -6 -2 -5 -13z"/>
<path d="M1210 469 c0 -4 7 -9 15 -13 9 -3 15 0 15 8 0 7 -7 13 -15 13 -8 0
-15 -4 -15 -8z"/>
<path d="M1261 464 c0 -11 3 -14 6 -6 3 7 2 16 -1 19 -3 4 -6 -2 -5 -13z"/>
<path d="M1301 464 c0 -11 3 -14 6 -6 3 7 2 16 -1 19 -3 4 -6 -2 -5 -13z"/>
<path d="M1321 464 c0 -11 3 -14 6 -6 3 7 2 16 -1 19 -3 4 -6 -2 -5 -13z"/>
<path d="M1356 467 c3 -10 9 -15 12 -12 3 3 0 11 -7 18 -10 9 -11 8 -5 -6z"/>
<path d="M1410 476 c0 -2 7 -9 15 -16 9 -7 15 -8 15 -2 0 5 -7 12 -15 16 -8 3
-15 4 -15 2z"/>
<path d="M1501 464 c0 -11 3 -14 6 -6 3 7 2 16 -1 19 -3 4 -6 -2 -5 -13z"/>
<path d="M1523 465 c0 -8 4 -12 9 -9 5 3 6 10 3 15 -9 13 -12 11 -12 -6z"/>
<path d="M1550 469 c0 -4 7 -9 15 -13 9 -3 15 0 15 8 0 7 -7 13 -15 13 -8 0
-15 -4 -15 -8z"/>
<path d="M1600 464 c0 -8 5 -12 10 -9 6 4 8 11 5 16 -9 14 -15 11 -15 -7z"/>
</g>
</svg>
