<?xml version="1.0" standalone="no"?>
<!DOCTYPE svg PUBLIC "-//W3C//DTD SVG 20010904//EN"
 "http://www.w3.org/TR/2001/REC-SVG-20010904/DTD/svg10.dtd">
<svg version="1.0" xmlns="http://www.w3.org/2000/svg"
 width="200.000000pt" height="200.000000pt" viewBox="0 0 200.000000 200.000000"
 preserveAspectRatio="xMidYMid meet">

<g transform="translate(0.000000,200.000000) scale(0.100000,-0.100000)"
fill="#000000" stroke="none">
<path d="M922 1759 c-194 -34 -359 -155 -443 -324 -23 -45 -39 -91 -37 -101 2
-12 11 2 26 40 91 238 318 387 567 373 50 -2 98 -8 108 -12 9 -4 17 -3 17 3 0
20 -161 35 -238 21z"/>
<path d="M1241 1648 c-1 -41 3 -68 9 -68 18 0 20 23 6 80 l-14 55 -1 -67z"/>
<path d="M1155 1570 c-14 -6 -5 -9 35 -9 39 -1 51 2 40 9 -18 12 -48 12 -75 0z"/>
<path d="M1280 1540 c-8 -5 -10 -10 -5 -10 6 0 17 5 25 10 8 5 11 10 5 10 -5
0 -17 -5 -25 -10z"/>
<path d="M1328 1543 c7 -3 16 -2 19 1 4 3 -2 6 -13 5 -11 0 -14 -3 -6 -6z"/>
<path d="M1247 1515 c-4 -8 -2 -17 3 -20 6 -4 10 3 10 14 0 25 -6 27 -13 6z"/>
<path d="M1644 1339 c-62 -66 -354 -239 -403 -239 -10 0 -36 -7 -57 -16 -50
-21 -169 -47 -239 -53 -5 -1 28 -38 73 -84 70 -70 91 -86 133 -96 27 -7 62
-23 77 -36 26 -21 29 -22 79 -9 111 28 220 103 276 187 50 74 87 191 94 293 3
46 4 84 1 84 -2 0 -17 -14 -34 -31z m-64 -148 c0 -11 -4 -22 -9 -25 -5 -3 -16
-37 -26 -74 -15 -63 -22 -74 -83 -133 -68 -65 -61 -50 14 31 53 58 82 149 58
185 -12 18 -12 24 -2 28 29 12 48 7 48 -12z m-125 -67 c0 -12 -8 -20 -22 -22
-23 -3 -39 -21 -93 -98 -26 -38 -36 -43 -110 -63 -44 -12 -89 -20 -98 -18 -11
2 -7 6 13 11 142 35 163 45 197 94 78 115 113 145 113 96z m-157 -68 c-19 -30
-35 -40 -88 -57 -85 -26 -150 -35 -150 -20 0 6 11 11 24 11 35 0 186 49 186
60 0 11 42 51 47 46 3 -2 -6 -20 -19 -40z m180 -14 c2 -7 -9 -17 -26 -23 -16
-5 -44 -30 -61 -54 -27 -38 -41 -47 -97 -65 -37 -11 -76 -20 -88 -19 -11 0 13
9 54 19 55 15 81 27 98 47 13 16 34 39 46 53 12 14 25 33 29 43 8 20 38 20 45
-1z"/>
<path d="M1550 1179 c0 -5 5 -7 10 -4 6 3 10 8 10 11 0 2 -4 4 -10 4 -5 0 -10
-5 -10 -11z"/>
<path d="M1430 1119 c0 -5 5 -7 10 -4 6 3 10 8 10 11 0 2 -4 4 -10 4 -5 0 -10
-5 -10 -11z"/>
<path d="M1440 1040 c0 -5 5 -10 10 -10 6 0 10 5 10 10 0 6 -4 10 -10 10 -5 0
-10 -4 -10 -10z"/>
<path d="M590 1332 c-25 -21 -19 -46 9 -37 12 3 81 -60 248 -228 227 -228 232
-233 239 -282 6 -43 15 -59 68 -113 34 -35 74 -73 90 -85 28 -20 29 -20 42 -2
10 14 17 15 27 7 8 -7 17 -9 21 -5 3 4 -22 35 -56 70 -70 71 -66 87 6 19 25
-25 48 -40 52 -35 3 5 -6 19 -20 30 -14 11 -26 29 -26 38 0 10 -19 39 -42 64
-32 34 -57 49 -98 61 -52 15 -70 31 -286 247 -175 175 -230 236 -227 250 7 25
-17 25 -47 1z m690 -727 c0 -16 -32 -1 -40 19 -4 13 -20 32 -34 44 -14 11 -26
24 -26 29 0 5 23 -12 50 -39 28 -26 50 -50 50 -53z"/>
<path d="M424 1275 c-10 -26 1 -219 14 -240 10 -17 11 -13 4 25 -4 25 -7 87
-7 138 1 50 -1 92 -2 92 -2 0 -6 -7 -9 -15z"/>
<path d="M480 1271 c0 -25 53 -170 78 -214 23 -41 36 -52 84 -71 31 -13 91
-44 135 -69 89 -53 191 -100 246 -115 35 -10 37 -9 37 12 0 15 -32 53 -97 118
-97 94 -99 95 -158 103 -75 9 -151 37 -190 70 l-30 26 40 -25 c42 -26 144 -56
191 -56 l27 0 -23 25 c-13 14 -28 25 -34 25 -6 0 -16 10 -21 23 -7 15 -29 28
-75 43 -79 25 -123 47 -172 86 -21 16 -38 25 -38 19z m240 -160 c0 -5 10 -12
23 -14 19 -4 18 -4 -5 -6 -16 0 -28 4 -28 12 0 9 -3 8 -9 -2 -5 -8 -11 -9 -15
-3 -3 6 0 13 6 15 20 8 28 8 28 -2z"/>
<path d="M1426 1238 c-142 -63 -436 -117 -554 -101 l-47 6 45 -48 45 -47 58 7
c129 14 331 85 465 163 67 40 83 52 65 52 -5 0 -39 -15 -77 -32z m-511 -148
c-3 -5 -12 -10 -18 -10 -7 0 -6 4 3 10 19 12 23 12 15 0z"/>
<path d="M1622 925 c-23 -7 -74 -32 -112 -54 -38 -23 -98 -55 -132 -71 -72
-34 -70 -35 26 -15 45 9 100 32 155 63 99 56 139 72 190 73 33 1 34 2 11 9
-38 12 -90 10 -138 -5z"/>
<path d="M365 895 c-22 -9 -51 -24 -65 -34 -23 -18 -22 -18 35 1 106 35 168
18 332 -93 138 -93 200 -120 288 -126 l70 -4 -73 30 c-41 16 -127 65 -191 109
-166 113 -192 125 -281 128 -49 3 -89 -2 -115 -11z"/>
<path d="M1563 794 c-24 -14 -43 -31 -42 -37 0 -9 2 -8 6 1 2 6 8 10 12 8 3
-2 22 9 41 25 43 35 38 36 -17 3z"/>
<path d="M458 774 c29 -7 78 -31 110 -52 87 -59 138 -83 195 -88 l52 -6 -65
34 c-36 18 -86 48 -113 66 -69 48 -109 62 -174 61 l-58 0 53 -15z"/>
<path d="M361 486 c-7 -9 -11 -40 -9 -78 l3 -63 94 -3 c84 -2 93 -1 81 13 -9
11 -32 15 -82 15 l-69 0 3 48 3 47 74 5 c47 3 76 10 79 18 6 18 -161 17 -177
-2z"/>
<path d="M917 493 c-4 -3 -7 -39 -7 -80 0 -58 3 -73 15 -73 12 0 15 13 15 55
0 30 3 55 6 55 3 0 34 -25 67 -55 87 -77 97 -75 97 25 0 64 -3 80 -15 80 -12
0 -15 -13 -15 -60 l0 -61 -70 61 c-70 60 -81 66 -93 53z"/>
<path d="M1206 484 c-19 -19 -22 -114 -4 -132 15 -15 174 -16 183 -2 12 20 9
118 -4 134 -19 23 -153 23 -175 0z m154 -64 l0 -51 -67 3 -68 3 -3 33 c-6 57
1 62 73 62 l65 0 0 -50z"/>
<path d="M1483 488 c2 -9 28 -13 82 -13 54 0 80 4 83 13 3 9 -18 12 -83 12
-65 0 -86 -3 -82 -12z"/>
<path d="M1482 418 c3 -8 29 -14 71 -16 55 -2 67 0 67 13 0 12 -14 15 -71 15
-52 0 -70 -3 -67 -12z"/>
<path d="M705 370 c-8 -14 3 -30 21 -30 8 0 14 9 14 20 0 21 -24 28 -35 10z"/>
<path d="M1487 363 c-18 -18 0 -23 78 -23 71 0 83 2 79 15 -5 11 -23 15 -78
15 -40 0 -76 -3 -79 -7z"/>
</g>
</svg>
